<svg width="212" height="61" viewBox="0 0 212 61" fill="none" xmlns="http://www.w3.org/2000/svg">
<rect x="0.5" y="1" width="211" height="59" rx="6.5" fill="black"/>
<path d="M138.155 29.3015V32.7381H136.01V34.9917H138.155V42.6492C138.155 45.2639 139.332 46.3098 142.296 46.3098C142.816 46.3098 143.312 46.2476 143.746 46.1729V43.9441C143.374 43.9815 143.139 44.0064 142.729 44.0064C141.403 44.0064 140.82 43.3838 140.82 41.9644V34.9917H143.746V32.7381H140.82V29.3015H138.155Z" fill="white"/>
<path d="M151.295 46.4966C155.237 46.4966 157.655 43.8445 157.655 39.4492C157.655 35.0789 155.225 32.4143 151.295 32.4143C147.352 32.4143 144.922 35.0789 144.922 39.4492C144.922 43.8445 147.34 46.4966 151.295 46.4966ZM151.295 44.1184C148.976 44.1184 147.674 42.4126 147.674 39.4492C147.674 36.5108 148.976 34.7925 151.295 34.7925C153.601 34.7925 154.915 36.5108 154.915 39.4492C154.915 42.4002 153.601 44.1184 151.295 44.1184Z" fill="white"/>
<path d="M159.724 46.2351H162.389V38.229C162.389 36.324 163.815 35.0415 165.836 35.0415C166.307 35.0415 167.101 35.1287 167.324 35.2034V32.5637C167.039 32.489 166.53 32.4517 166.134 32.4517C164.373 32.4517 162.873 33.4229 162.488 34.7551H162.29V32.6758H159.724V46.2351Z" fill="white"/>
<path d="M173.943 34.6929C175.914 34.6929 177.203 36.075 177.265 38.2041H170.446C170.595 36.0874 171.971 34.6929 173.943 34.6929ZM177.253 42.5745C176.757 43.6328 175.654 44.218 174.042 44.218C171.909 44.218 170.533 42.7114 170.446 40.3333V40.1839H179.981V39.25C179.981 34.9917 177.712 32.4143 173.955 32.4143C170.149 32.4143 167.731 35.166 167.731 39.499C167.731 43.8321 170.099 46.4966 173.967 46.4966C177.055 46.4966 179.212 45.0025 179.819 42.5745H177.253Z" fill="white"/>
<path d="M120.674 41.2279C120.879 44.5574 123.642 46.6868 127.754 46.6868C132.149 46.6868 134.899 44.4542 134.899 40.8923C134.899 38.0919 133.331 36.5433 129.528 35.6528L127.484 35.1495C125.068 34.5817 124.092 33.8203 124.092 32.491C124.092 30.8133 125.608 29.7164 127.883 29.7164C130.042 29.7164 131.532 30.7875 131.802 32.5039H134.604C134.437 29.3679 131.687 27.1611 127.921 27.1611C123.873 27.1611 121.175 29.3679 121.175 32.6846C121.175 35.4205 122.704 37.0466 126.058 37.8338L128.448 38.4145C130.903 38.9953 131.982 39.847 131.982 41.2666C131.982 42.9185 130.286 44.1187 127.973 44.1187C125.493 44.1187 123.771 42.9959 123.526 41.2279H120.674Z" fill="white"/>
<path d="M93.0602 32.4517C91.2253 32.4517 89.6383 33.3731 88.82 34.917H88.6216V32.6758H86.0552V50.7425H88.7208V44.1807H88.9316C89.6383 45.6126 91.1633 46.4593 93.085 46.4593C96.4946 46.4593 98.6643 43.7573 98.6643 39.4492C98.6643 35.1411 96.4946 32.4517 93.0602 32.4517ZM92.3039 44.0562C90.0722 44.0562 88.6712 42.2881 88.6712 39.4617C88.6712 36.6228 90.0722 34.8548 92.3163 34.8548C94.5728 34.8548 95.9243 36.5855 95.9243 39.4492C95.9243 42.3255 94.5728 44.0562 92.3039 44.0562Z" fill="white"/>
<path d="M107.992 32.4517C106.157 32.4517 104.57 33.3731 103.752 34.917H103.553V32.6758H100.987V50.7425H103.652V44.1807H103.863C104.57 45.6126 106.095 46.4593 108.017 46.4593C111.426 46.4593 113.596 43.7573 113.596 39.4492C113.596 35.1411 111.426 32.4517 107.992 32.4517ZM107.236 44.0562C105.004 44.0562 103.603 42.2881 103.603 39.4617C103.603 36.6228 105.004 34.8548 107.248 34.8548C109.504 34.8548 110.856 36.5855 110.856 39.4492C110.856 42.3255 109.504 44.0562 107.236 44.0562Z" fill="white"/>
<path d="M81.2725 46.2351H84.331L77.6358 27.6128H74.5389L67.8438 46.2351H70.7994L72.5085 41.2924H79.5763L81.2725 46.2351ZM75.9396 30.994H76.158L78.8438 38.8662H73.241L75.9396 30.994Z" fill="white"/>
<path d="M69.6328 13.566V22.5496H72.8626C75.5282 22.5496 77.0718 20.8998 77.0718 18.0298C77.0718 15.2034 75.5158 13.566 72.8626 13.566H69.6328ZM71.0214 14.8361H72.7076C74.5612 14.8361 75.6584 16.0189 75.6584 18.0485C75.6584 20.1091 74.5798 21.2795 72.7076 21.2795H71.0214V14.8361Z" fill="white"/>
<path d="M81.7993 22.6803C83.7707 22.6803 84.9795 21.3542 84.9795 19.1566C84.9795 16.9714 83.7645 15.6392 81.7993 15.6392C79.828 15.6392 78.6129 16.9714 78.6129 19.1566C78.6129 21.3542 79.8218 22.6803 81.7993 22.6803ZM81.7993 21.4912C80.6401 21.4912 79.9892 20.6383 79.9892 19.1566C79.9892 17.6874 80.6401 16.8282 81.7993 16.8282C82.9524 16.8282 83.6095 17.6874 83.6095 19.1566C83.6095 20.6321 82.9524 21.4912 81.7993 21.4912Z" fill="white"/>
<path d="M95.2738 15.7699H93.941L92.7384 20.9434H92.633L91.2444 15.7699H89.9673L88.5787 20.9434H88.4795L87.2707 15.7699H85.9193L87.779 22.5496H89.1491L90.5377 17.5566H90.6431L92.0379 22.5496H93.4203L95.2738 15.7699Z" fill="white"/>
<path d="M96.8088 22.5496H98.1416V18.5839C98.1416 17.5255 98.7677 16.8656 99.7534 16.8656C100.739 16.8656 101.21 17.4072 101.21 18.4967V22.5496H102.543V18.1605C102.543 16.5481 101.712 15.6392 100.206 15.6392C99.1892 15.6392 98.5197 16.0936 98.1912 16.8469H98.092V15.7699H96.8088V22.5496Z" fill="white"/>
<path d="M104.642 22.5496H105.975V13.124H104.642V22.5496Z" fill="white"/>
<path d="M110.988 22.6803C112.959 22.6803 114.168 21.3542 114.168 19.1566C114.168 16.9714 112.953 15.6392 110.988 15.6392C109.016 15.6392 107.801 16.9714 107.801 19.1566C107.801 21.3542 109.01 22.6803 110.988 22.6803ZM110.988 21.4912C109.828 21.4912 109.177 20.6383 109.177 19.1566C109.177 17.6874 109.828 16.8282 110.988 16.8282C112.141 16.8282 112.798 17.6874 112.798 19.1566C112.798 20.6321 112.141 21.4912 110.988 21.4912Z" fill="white"/>
<path d="M118.139 21.5348C117.414 21.5348 116.887 21.1799 116.887 20.5698C116.887 19.9722 117.308 19.6547 118.238 19.5924L119.887 19.4866V20.0531C119.887 20.8936 119.143 21.5348 118.139 21.5348ZM117.798 22.6616C118.684 22.6616 119.422 22.2756 119.825 21.597H119.93V22.5496H121.214V17.9177C121.214 16.4858 120.259 15.6392 118.567 15.6392C117.035 15.6392 115.944 16.3862 115.808 17.5504H117.097C117.246 17.071 117.761 16.7971 118.505 16.7971C119.416 16.7971 119.887 17.2018 119.887 17.9177V18.5029L118.058 18.6088C116.453 18.7084 115.548 19.4119 115.548 20.6321C115.548 21.871 116.496 22.6616 117.798 22.6616Z" fill="white"/>
<path d="M125.737 22.6616C126.666 22.6616 127.454 22.2196 127.857 21.4788H127.962V22.5496H129.239V13.124H127.906V16.8469H127.807C127.441 16.0999 126.66 15.6578 125.737 15.6578C124.032 15.6578 122.935 17.015 122.935 19.1566C122.935 21.3044 124.019 22.6616 125.737 22.6616ZM126.115 16.8594C127.231 16.8594 127.931 17.7496 127.931 19.1628C127.931 20.5823 127.237 21.4601 126.115 21.4601C124.986 21.4601 124.311 20.5947 124.311 19.1566C124.311 17.731 124.993 16.8594 126.115 16.8594Z" fill="white"/>
<path d="M137.882 22.6803C139.853 22.6803 141.062 21.3542 141.062 19.1566C141.062 16.9714 139.847 15.6392 137.882 15.6392C135.911 15.6392 134.696 16.9714 134.696 19.1566C134.696 21.3542 135.904 22.6803 137.882 22.6803ZM137.882 21.4912C136.723 21.4912 136.072 20.6383 136.072 19.1566C136.072 17.6874 136.723 16.8282 137.882 16.8282C139.035 16.8282 139.692 17.6874 139.692 19.1566C139.692 20.6321 139.035 21.4912 137.882 21.4912Z" fill="white"/>
<path d="M142.826 22.5496H144.159V18.5839C144.159 17.5255 144.785 16.8656 145.771 16.8656C146.757 16.8656 147.228 17.4072 147.228 18.4967V22.5496H148.561V18.1605C148.561 16.5481 147.73 15.6392 146.224 15.6392C145.207 15.6392 144.537 16.0936 144.209 16.8469H144.11V15.7699H142.826V22.5496Z" fill="white"/>
<path d="M154.699 14.0828V15.801H153.627V16.9279H154.699V20.7566C154.699 22.064 155.288 22.5869 156.77 22.5869C157.03 22.5869 157.278 22.5558 157.495 22.5184V21.404C157.309 21.4227 157.191 21.4352 156.987 21.4352C156.323 21.4352 156.032 21.1239 156.032 20.4142V16.9279H157.495V15.801H156.032V14.0828H154.699Z" fill="white"/>
<path d="M159.284 22.5496H160.617V18.5901C160.617 17.5629 161.224 16.8718 162.315 16.8718C163.258 16.8718 163.76 17.4197 163.76 18.5029V22.5496H165.093V18.173C165.093 16.5605 164.206 15.6454 162.768 15.6454C161.751 15.6454 161.038 16.0999 160.71 16.8594H160.604V13.124H159.284V22.5496Z" fill="white"/>
<path d="M169.901 16.7784C170.886 16.7784 171.531 17.4695 171.562 18.5341H168.153C168.227 17.4757 168.915 16.7784 169.901 16.7784ZM171.556 20.7192C171.308 21.2484 170.756 21.541 169.95 21.541C168.884 21.541 168.196 20.7877 168.153 19.5986V19.5239H172.92V19.057C172.92 16.9279 171.785 15.6392 169.907 15.6392C168.004 15.6392 166.795 17.015 166.795 19.1815C166.795 21.348 167.979 22.6803 169.913 22.6803C171.457 22.6803 172.535 21.9332 172.839 20.7192H171.556Z" fill="white"/>
<path d="M53.3752 30.9516C53.4076 28.4301 54.756 26.0442 56.8951 24.7235C55.5456 22.788 53.2853 21.5609 50.9337 21.487C48.4256 21.2226 45.994 22.9942 44.7159 22.9942C43.413 22.9942 41.4452 21.5132 39.3261 21.557C36.564 21.6466 33.989 23.2237 32.6452 25.6488C29.7565 30.6715 31.9112 38.053 34.6783 42.1129C36.0628 44.101 37.6808 46.3216 39.798 46.2429C41.8697 46.1566 42.6435 44.9162 45.1443 44.9162C47.6219 44.9162 48.3478 46.2429 50.5079 46.1928C52.731 46.1566 54.1317 44.196 55.4676 42.1891C56.4623 40.7726 57.2277 39.207 57.7355 37.5503C55.123 36.4407 53.3783 33.8003 53.3752 30.9516Z" fill="white"/>
<path d="M49.2951 18.817C50.5073 17.3557 51.1044 15.4774 50.9598 13.5811C49.108 13.7764 47.3974 14.6652 46.1689 16.0705C44.9676 17.4435 44.3424 19.2887 44.4606 21.1126C46.3131 21.1317 48.1343 20.267 49.2951 18.817Z" fill="white"/>
<rect x="0.5" y="1" width="211" height="59" rx="6.5" stroke="#979797"/>
</svg>
