<svg width="26" height="25" viewBox="0 0 26 25" fill="none" xmlns="http://www.w3.org/2000/svg">
<path d="M25.0078 12.5761C25.0078 15.6863 23.9997 18.4246 21.9836 20.7911C19.9675 23.1237 17.4641 24.5267 14.4735 25V16.2272H17.3969L17.9514 12.5761H14.4735V10.1927C14.4735 8.90805 15.1456 8.26572 16.4897 8.26572H18.0522V5.17241C17.1113 5.00338 16.1872 4.91886 15.28 4.91886C14.3055 4.91886 13.4655 5.1048 12.7598 5.47667C12.0878 5.84855 11.5502 6.40636 11.1469 7.1501C10.7437 7.89385 10.5421 8.77282 10.5421 9.78702V12.5761H7.36668V16.2272H10.5421V25C7.5515 24.5267 5.04814 23.1237 3.03201 20.7911C1.01588 18.4246 0.0078125 15.6863 0.0078125 12.5761C0.0078125 9.09398 1.21749 6.1359 3.63684 3.70183C6.0898 1.23394 9.04679 0 12.5078 0C15.9688 0 18.909 1.23394 21.3284 3.70183C23.7813 6.1359 25.0078 9.09398 25.0078 12.5761Z" fill="white"/>
</svg>
