<svg width="210" height="61" viewBox="0 0 210 61" fill="none" xmlns="http://www.w3.org/2000/svg">
<rect x="0.5" y="1" width="209" height="59" rx="4.5" fill="black"/>
<path d="M105.944 33.1263C102.453 33.1263 99.607 35.8098 99.607 39.5058C99.607 43.1793 102.453 45.8853 105.944 45.8853C109.437 45.8853 112.283 43.1793 112.283 39.5058C112.282 35.8098 109.436 33.1263 105.944 33.1263ZM105.944 43.3743C104.031 43.3743 102.382 41.7798 102.382 39.5073C102.382 37.2108 104.032 35.6403 105.944 35.6403C107.858 35.6403 109.507 37.2108 109.507 39.5073C109.507 41.7783 107.858 43.3743 105.944 43.3743ZM92.1175 33.1263C88.6259 33.1263 85.7801 35.8098 85.7801 39.5058C85.7801 43.1793 88.6259 45.8853 92.1175 45.8853C95.6106 45.8853 98.4565 43.1793 98.4565 39.5058C98.4565 35.8098 95.6106 33.1263 92.1175 33.1263ZM92.1175 43.3743C90.204 43.3743 88.5547 41.7798 88.5547 39.5073C88.5547 37.2108 90.2055 35.6403 92.1175 35.6403C94.0311 35.6403 95.6804 37.2108 95.6804 39.5073C95.6819 41.7783 94.0311 43.3743 92.1175 43.3743ZM75.6719 35.0853V37.7913H82.0821C81.8906 39.3138 81.3889 40.4253 80.6228 41.1978C79.6906 42.1398 78.2313 43.1793 75.6719 43.1793C71.7261 43.1793 68.6412 39.9648 68.6412 35.9778C68.6412 31.9908 71.7261 28.7763 75.6719 28.7763C77.8008 28.7763 79.3551 29.6223 80.5026 30.7098L82.3924 28.8003C80.7891 27.2538 78.6618 26.0703 75.6719 26.0703C70.2668 26.0703 65.7227 30.5163 65.7227 35.9778C65.7227 41.4393 70.2668 45.8853 75.6719 45.8853C78.589 45.8853 80.7906 44.9178 82.5112 43.1058C84.2807 41.3178 84.8315 38.8038 84.8315 36.7743C84.8315 36.1473 84.784 35.5668 84.6875 35.0838H75.6719V35.0853ZM142.933 37.1868C142.407 35.7618 140.804 33.1263 137.528 33.1263C134.275 33.1263 131.572 35.7123 131.572 39.5058C131.572 43.0818 134.251 45.8853 137.838 45.8853C140.731 45.8853 142.406 44.0973 143.101 43.0578L140.948 41.6073C140.231 42.6708 139.25 43.3713 137.838 43.3713C136.428 43.3713 135.423 42.7188 134.777 41.4378L143.219 37.9098L142.933 37.1868ZM134.323 39.3138C134.251 36.8478 136.212 35.5923 137.624 35.5923C138.724 35.5923 139.657 36.1488 139.968 36.9453L134.323 39.3138ZM127.46 45.4998H130.233V26.7483H127.46V45.4998ZM122.914 34.5528H122.819C122.197 33.8028 121 33.1263 119.495 33.1263C116.338 33.1263 113.444 35.9298 113.444 39.5313C113.444 43.1073 116.338 45.8868 119.495 45.8868C121.002 45.8868 122.197 45.2103 122.819 44.4378H122.914V45.3558C122.914 47.7963 121.622 49.1013 119.543 49.1013C117.844 49.1013 116.792 47.8698 116.361 46.8303L113.946 47.8458C114.639 49.5363 116.48 51.6153 119.543 51.6153C122.795 51.6153 125.546 49.6818 125.546 44.9688V33.5148H122.916V34.5528H122.914ZM119.734 43.3743C117.821 43.3743 116.219 41.7543 116.219 39.5313C116.219 37.2828 117.821 35.6403 119.734 35.6403C121.622 35.6403 123.106 37.2828 123.106 39.5313C123.106 41.7543 121.622 43.3743 119.734 43.3743ZM155.928 26.7483H149.291V45.4998H152.06V38.3958H155.927C158.997 38.3958 162.016 36.1503 162.016 32.5728C162.016 28.9953 158.998 26.7483 155.928 26.7483ZM156 35.7858H152.06V29.3583H156C158.071 29.3583 159.246 31.0908 159.246 32.5728C159.246 34.0248 158.071 35.7858 156 35.7858ZM173.119 33.0933C171.114 33.0933 169.037 33.9858 168.177 35.9643L170.636 37.0008C171.161 35.9643 172.141 35.6253 173.167 35.6253C174.599 35.6253 176.056 36.4938 176.079 38.0373V38.2308C175.578 37.9413 174.503 37.5078 173.19 37.5078C170.541 37.5078 167.842 38.9793 167.842 41.7288C167.842 44.2383 170.015 45.8538 172.45 45.8538C174.311 45.8538 175.339 45.0093 175.983 44.0193H176.078V45.4668H178.753V38.2773C178.754 34.9503 176.293 33.0933 173.119 33.0933ZM172.784 43.3698C171.878 43.3698 170.612 42.9108 170.612 41.7768C170.612 40.3293 172.188 39.7743 173.55 39.7743C174.766 39.7743 175.34 40.0398 176.079 40.4013C175.864 42.1398 174.384 43.3698 172.784 43.3698ZM188.494 33.5028L185.319 41.6328H185.224L181.928 33.5028H178.944L183.886 44.8653L181.069 51.1863H183.958L191.575 33.5028H188.494ZM163.545 45.4998H166.314V26.7483H163.545V45.4998Z" fill="white"/>
<path d="M75.1887 15.8648C75.1887 17.1218 74.8206 18.1223 74.0828 18.8693C73.2455 19.7573 72.1529 20.2013 70.8109 20.2013C69.5253 20.2013 68.4312 19.7513 67.533 18.8513C66.6334 17.9498 66.1836 16.8338 66.1836 15.5018C66.1836 14.1683 66.6334 13.0523 67.533 12.1523C68.4312 11.2508 69.5253 10.8008 70.8109 10.8008C71.4492 10.8008 72.0593 10.9268 72.6383 11.1773C73.2188 11.4293 73.6834 11.7638 74.0308 12.1823L73.2484 12.9743C72.6591 12.2618 71.8471 11.9063 70.8094 11.9063C69.8712 11.9063 69.0606 12.2393 68.3762 12.9053C67.6919 13.5713 67.3504 14.4368 67.3504 15.5003C67.3504 16.5638 67.6919 17.4293 68.3762 18.0953C69.0606 18.7613 69.8712 19.0943 70.8094 19.0943C71.804 19.0943 72.6339 18.7598 73.2974 18.0893C73.728 17.6528 73.9773 17.0453 74.0442 16.2668H70.8094V15.1853H75.1249C75.1694 15.4208 75.1887 15.6473 75.1887 15.8648Z" fill="white"/>
<path d="M82.0325 12.1059H77.9768V14.9589H81.6347V16.0404H77.9768V18.8934H82.0325V20.0004H76.8322V11.0004H82.0325V12.1059Z" fill="white"/>
<path d="M86.8585 20.0004H85.714V12.1059H83.2259V11.0004H89.3466V12.1059H86.8585V20.0004Z" fill="white"/>
<path d="M93.7749 20.0004V11.0004H94.9195V20.0004H93.7749Z" fill="white"/>
<path d="M99.9953 20.0004H98.8507V12.1059H96.3627V11.0004H102.483V12.1059H99.9953V20.0004Z" fill="white"/>
<path d="M114.07 18.8379C113.194 19.7469 112.106 20.2014 110.804 20.2014C109.502 20.2014 108.414 19.7469 107.539 18.8379C106.663 17.9289 106.227 16.8159 106.227 15.5004C106.227 14.1849 106.663 13.0719 107.539 12.1629C108.414 11.2539 109.502 10.7979 110.804 10.7979C112.098 10.7979 113.185 11.2554 114.064 12.1689C114.943 13.0824 115.382 14.1924 115.382 15.5004C115.382 16.8159 114.944 17.9289 114.07 18.8379ZM108.384 18.0834C109.043 18.7584 109.849 19.0944 110.804 19.0944C111.758 19.0944 112.566 18.7569 113.224 18.0834C113.883 17.4084 114.214 16.5474 114.214 15.5004C114.214 14.4534 113.883 13.5924 113.224 12.9174C112.566 12.2424 111.758 11.9064 110.804 11.9064C109.849 11.9064 109.043 12.2439 108.384 12.9174C107.726 13.5924 107.395 14.4534 107.395 15.5004C107.395 16.5474 107.726 17.4084 108.384 18.0834Z" fill="white"/>
<path d="M116.988 20.0004V11.0004H118.381L122.71 18.0009H122.759L122.71 16.2669V11.0004H123.854V20.0004H122.659L118.13 12.6594H118.081L118.13 14.3934V20.0004H116.988Z" fill="white"/>
<path d="M75.1887 15.8648C75.1887 17.1218 74.8206 18.1223 74.0828 18.8693C73.2455 19.7573 72.1529 20.2013 70.8109 20.2013C69.5253 20.2013 68.4312 19.7513 67.533 18.8513C66.6334 17.9498 66.1836 16.8338 66.1836 15.5018C66.1836 14.1683 66.6334 13.0523 67.533 12.1523C68.4312 11.2508 69.5253 10.8008 70.8109 10.8008C71.4492 10.8008 72.0593 10.9268 72.6383 11.1773C73.2188 11.4293 73.6834 11.7638 74.0308 12.1823L73.2484 12.9743C72.6591 12.2618 71.8471 11.9063 70.8094 11.9063C69.8712 11.9063 69.0606 12.2393 68.3762 12.9053C67.6919 13.5713 67.3504 14.4368 67.3504 15.5003C67.3504 16.5638 67.6919 17.4293 68.3762 18.0953C69.0606 18.7613 69.8712 19.0943 70.8094 19.0943C71.804 19.0943 72.6339 18.7598 73.2974 18.0893C73.728 17.6528 73.9773 17.0453 74.0442 16.2668H70.8094V15.1853H75.1249C75.1694 15.4208 75.1887 15.6473 75.1887 15.8648Z" stroke="white" stroke-width="0.2" stroke-miterlimit="10"/>
<path d="M82.0325 12.1059H77.9768V14.9589H81.6347V16.0404H77.9768V18.8934H82.0325V20.0004H76.8322V11.0004H82.0325V12.1059Z" stroke="white" stroke-width="0.2" stroke-miterlimit="10"/>
<path d="M86.8585 20.0004H85.714V12.1059H83.2259V11.0004H89.3466V12.1059H86.8585V20.0004Z" stroke="white" stroke-width="0.2" stroke-miterlimit="10"/>
<path d="M93.7749 20.0004V11.0004H94.9195V20.0004H93.7749Z" stroke="white" stroke-width="0.2" stroke-miterlimit="10"/>
<path d="M99.9953 20.0004H98.8507V12.1059H96.3627V11.0004H102.483V12.1059H99.9953V20.0004Z" stroke="white" stroke-width="0.2" stroke-miterlimit="10"/>
<path d="M114.07 18.8379C113.194 19.7469 112.106 20.2014 110.804 20.2014C109.502 20.2014 108.414 19.7469 107.539 18.8379C106.663 17.9289 106.227 16.8159 106.227 15.5004C106.227 14.1849 106.663 13.0719 107.539 12.1629C108.414 11.2539 109.502 10.7979 110.804 10.7979C112.098 10.7979 113.185 11.2554 114.064 12.1689C114.943 13.0824 115.382 14.1924 115.382 15.5004C115.382 16.8159 114.944 17.9289 114.07 18.8379ZM108.384 18.0834C109.043 18.7584 109.849 19.0944 110.804 19.0944C111.758 19.0944 112.566 18.7569 113.224 18.0834C113.883 17.4084 114.214 16.5474 114.214 15.5004C114.214 14.4534 113.883 13.5924 113.224 12.9174C112.566 12.2424 111.758 11.9064 110.804 11.9064C109.849 11.9064 109.043 12.2439 108.384 12.9174C107.726 13.5924 107.395 14.4534 107.395 15.5004C107.395 16.5474 107.726 17.4084 108.384 18.0834Z" stroke="white" stroke-width="0.2" stroke-miterlimit="10"/>
<path d="M116.988 20.0004V11.0004H118.381L122.71 18.0009H122.759L122.71 16.2669V11.0004H123.854V20.0004H122.659L118.13 12.6594H118.081L118.13 14.3934V20.0004H116.988Z" stroke="white" stroke-width="0.2" stroke-miterlimit="10"/>
<g filter="url(#filter0_ii_8390_97946)">
<path d="M20.2889 11.8068C19.8569 12.2688 19.6016 12.9858 19.6016 13.9143V47.0883C19.6016 48.0183 19.8569 48.7338 20.2889 49.1958L20.3988 49.3038L38.7905 30.7203V30.5013V30.2823L20.3988 11.6973L20.2889 11.8068Z" fill="url(#paint0_linear_8390_97946)"/>
<path d="M44.9187 36.9164L38.7891 30.7199V30.5009V30.2819L44.9202 24.0869L45.0582 24.1664L52.322 28.3364C54.3959 29.5274 54.3959 31.4759 52.322 32.6684L45.0582 36.8384L44.9187 36.9164Z" fill="url(#paint1_linear_8390_97946)"/>
<g filter="url(#filter1_i_8390_97946)">
<path d="M45.0599 36.837L38.7892 30.501L20.2891 49.1955C20.9719 49.9275 22.1017 50.0175 23.3739 49.2885L45.0599 36.837Z" fill="url(#paint2_linear_8390_97946)"/>
</g>
<path d="M45.0599 24.1651L23.3739 11.7151C22.1017 10.9846 20.9719 11.0761 20.2891 11.8081L38.7907 30.5026L45.0599 24.1651Z" fill="url(#paint3_linear_8390_97946)"/>
</g>
<rect x="0.5" y="1" width="209" height="59" rx="4.5" stroke="#979797"/>
<defs>
<filter id="filter0_ii_8390_97946" x="19.6016" y="11.2109" width="34.2773" height="38.5811" filterUnits="userSpaceOnUse" color-interpolation-filters="sRGB">
<feFlood flood-opacity="0" result="BackgroundImageFix"/>
<feBlend mode="normal" in="SourceGraphic" in2="BackgroundImageFix" result="shape"/>
<feColorMatrix in="SourceAlpha" type="matrix" values="0 0 0 0 0 0 0 0 0 0 0 0 0 0 0 0 0 0 127 0" result="hardAlpha"/>
<feOffset dy="-0.15"/>
<feComposite in2="hardAlpha" operator="arithmetic" k2="-1" k3="1"/>
<feColorMatrix type="matrix" values="0 0 0 0 0 0 0 0 0 0 0 0 0 0 0 0 0 0 0.12 0"/>
<feBlend mode="normal" in2="shape" result="effect1_innerShadow_8390_97946"/>
<feColorMatrix in="SourceAlpha" type="matrix" values="0 0 0 0 0 0 0 0 0 0 0 0 0 0 0 0 0 0 127 0" result="hardAlpha"/>
<feOffset dy="0.15"/>
<feComposite in2="hardAlpha" operator="arithmetic" k2="-1" k3="1"/>
<feColorMatrix type="matrix" values="0 0 0 0 1 0 0 0 0 1 0 0 0 0 1 0 0 0 0.25 0"/>
<feBlend mode="normal" in2="effect1_innerShadow_8390_97946" result="effect2_innerShadow_8390_97946"/>
</filter>
<filter id="filter1_i_8390_97946" x="20.2891" y="30.501" width="24.7695" height="19.291" filterUnits="userSpaceOnUse" color-interpolation-filters="sRGB">
<feFlood flood-opacity="0" result="BackgroundImageFix"/>
<feBlend mode="normal" in="SourceGraphic" in2="BackgroundImageFix" result="shape"/>
<feColorMatrix in="SourceAlpha" type="matrix" values="0 0 0 0 0 0 0 0 0 0 0 0 0 0 0 0 0 0 127 0" result="hardAlpha"/>
<feOffset dy="-0.15"/>
<feComposite in2="hardAlpha" operator="arithmetic" k2="-1" k3="1"/>
<feColorMatrix type="matrix" values="0 0 0 0 0 0 0 0 0 0 0 0 0 0 0 0 0 0 0.08 0"/>
<feBlend mode="normal" in2="shape" result="effect1_innerShadow_8390_97946"/>
</filter>
<linearGradient id="paint0_linear_8390_97946" x1="37.1602" y1="13.5633" x2="11.9886" y2="38.4752" gradientUnits="userSpaceOnUse">
<stop stop-color="#00A0FF"/>
<stop offset="0.0066" stop-color="#00A1FF"/>
<stop offset="0.2601" stop-color="#00BEFF"/>
<stop offset="0.5122" stop-color="#00D2FF"/>
<stop offset="0.7604" stop-color="#00DFFF"/>
<stop offset="1" stop-color="#00E3FF"/>
</linearGradient>
<linearGradient id="paint1_linear_8390_97946" x1="55.0216" y1="30.5009" x2="19.1022" y2="30.5009" gradientUnits="userSpaceOnUse">
<stop stop-color="#FFE000"/>
<stop offset="0.4087" stop-color="#FFBD00"/>
<stop offset="0.7754" stop-color="#FFA500"/>
<stop offset="1" stop-color="#FF9C00"/>
</linearGradient>
<linearGradient id="paint2_linear_8390_97946" x1="41.6545" y1="33.9418" x2="7.5186" y2="67.7256" gradientUnits="userSpaceOnUse">
<stop stop-color="#FF3A44"/>
<stop offset="1" stop-color="#C31162"/>
</linearGradient>
<linearGradient id="paint3_linear_8390_97946" x1="15.6297" y1="0.764751" x2="30.8724" y2="15.8501" gradientUnits="userSpaceOnUse">
<stop stop-color="#32A071"/>
<stop offset="0.0685" stop-color="#2DA771"/>
<stop offset="0.4762" stop-color="#15CF74"/>
<stop offset="0.8009" stop-color="#06E775"/>
<stop offset="1" stop-color="#00F076"/>
</linearGradient>
</defs>
</svg>
