<svg width="22" height="23" viewBox="0 0 22 23" fill="none" xmlns="http://www.w3.org/2000/svg">
<path d="M11.0095 2.48168C13.9491 2.48168 14.297 2.49475 15.4529 2.54632C16.5276 2.59376 17.1072 2.77392 17.4944 2.9245C18.0059 3.12253 18.3752 3.3632 18.7575 3.74551C19.1446 4.13263 19.3805 4.49775 19.5826 5.00933C19.7332 5.39645 19.9134 5.98023 19.9608 7.05084C20.0124 8.21152 20.0254 8.55945 20.0254 11.4948C20.0254 14.4302 20.0124 14.7823 19.9608 15.9388C19.9134 17.0136 19.7332 17.5932 19.5826 17.9804C19.3846 18.4919 19.1446 18.8612 18.7616 19.2435C18.3745 19.6306 18.0094 19.8665 17.4985 20.0686C17.1114 20.2192 16.5269 20.3994 15.457 20.4468C14.2963 20.4984 13.9484 20.5114 11.013 20.5114C8.07757 20.5114 7.72552 20.4984 6.56896 20.4468C5.49423 20.3994 4.91458 20.2192 4.52746 20.0686C4.01588 19.8706 3.64663 19.6306 3.26363 19.2476C2.87651 18.8605 2.64066 18.4954 2.4385 17.9845C2.28792 17.5974 2.10777 17.0129 2.06032 15.943C2.00875 14.7823 1.99569 14.4344 1.99569 11.499C1.99569 8.56357 2.00875 8.21152 2.06032 7.05496C2.10777 5.98023 2.28792 5.40058 2.4385 5.01345C2.63654 4.50187 2.8772 4.13263 3.25951 3.74963C3.64663 3.36251 4.01175 3.12666 4.52333 2.9245C4.91045 2.77392 5.49423 2.59376 6.56484 2.54632C7.72071 2.49475 8.07001 2.48168 11.0095 2.48168ZM11.0095 0.500688C8.02256 0.500688 7.64919 0.513752 6.47545 0.565323C5.30652 0.616893 4.5027 0.805985 3.80684 1.0769C3.08073 1.3602 2.46601 1.73426 1.8561 2.34898C1.24138 2.95957 0.867322 3.57361 0.584028 4.29559C0.31311 4.99626 0.124018 5.79526 0.0724476 6.9642C0.020877 8.14207 0.0078125 8.51544 0.0078125 11.5024C0.0078125 14.4894 0.020877 14.8627 0.0724476 16.0365C0.124018 17.2054 0.31311 18.0092 0.584028 18.7051C0.868009 19.4312 1.24138 20.0459 1.8561 20.6558C2.46601 21.2657 3.08073 21.6446 3.80272 21.9238C4.50339 22.1947 5.30239 22.3838 6.47132 22.4354C7.64438 22.4869 8.01844 22.5 11.0054 22.5C13.9924 22.5 14.3664 22.4869 15.5395 22.4354C16.7084 22.3838 17.5122 22.1947 18.2081 21.9238C18.9301 21.6446 19.5448 21.2664 20.1547 20.6558C20.7646 20.0452 21.1435 19.4312 21.4227 18.7092C21.6936 18.0085 21.8827 17.2095 21.9342 16.0406C21.9858 14.8676 21.9989 14.4935 21.9989 11.5065C21.9989 8.51957 21.9858 8.14619 21.9342 6.97245C21.8827 5.80352 21.6936 4.9997 21.4227 4.30384C21.1517 3.57292 20.7777 2.95888 20.1636 2.34829C19.5537 1.73838 18.939 1.35951 18.217 1.08034C17.5164 0.809423 16.7174 0.620331 15.5484 0.568761C14.3712 0.513065 13.9972 0.5 11.0102 0.5L11.0095 0.500688Z" fill="white"/>
<path d="M11.0095 5.85099C7.88982 5.85099 5.35805 8.38208 5.35805 11.5024C5.35805 14.6228 7.88913 17.1539 11.0095 17.1539C14.1299 17.1539 16.6609 14.6228 16.6609 11.5024C16.6609 8.38276 14.1299 5.85099 11.0095 5.85099ZM11.0095 15.1681C8.98518 15.1681 7.34386 13.5268 7.34386 11.5024C7.34386 9.47812 8.98518 7.8368 11.0095 7.8368C13.0338 7.8368 14.6751 9.47812 14.6751 11.5024C14.6751 13.5268 13.0338 15.1681 11.0095 15.1681Z" fill="white"/>
<path d="M18.2038 5.62774C18.2038 6.35661 17.6131 6.94726 16.8842 6.94726C16.1554 6.94726 15.5647 6.35661 15.5647 5.62774C15.5647 4.89888 16.1554 4.30822 16.8842 4.30822C17.6131 4.30822 18.2038 4.89888 18.2038 5.62774Z" fill="white"/>
</svg>
