<svg width="22" height="23" viewBox="0 0 22 23" fill="none" xmlns="http://www.w3.org/2000/svg">
<path d="M4.91071 22.5H0.34375V7.81696H4.91071V22.5ZM2.65179 5.80357C1.93155 5.80357 1.30952 5.54167 0.785714 5.01786C0.261905 4.49405 0 3.87202 0 3.15179C0 2.43155 0.261905 1.80952 0.785714 1.28571C1.30952 0.761905 1.93155 0.5 2.65179 0.5C3.11012 0.5 3.53571 0.614583 3.92857 0.84375C4.35417 1.07292 4.68155 1.4003 4.91071 1.82589C5.17262 2.21875 5.30357 2.66071 5.30357 3.15179C5.30357 3.61012 5.17262 4.05208 4.91071 4.47768C4.68155 4.87054 4.35417 5.19792 3.92857 5.45982C3.53571 5.68899 3.11012 5.80357 2.65179 5.80357ZM22 22.5H17.433V15.3304C17.433 14.7738 17.4167 14.3318 17.3839 14.0045C17.3512 13.6443 17.2693 13.2515 17.1384 12.8259C17.0074 12.3676 16.7619 12.0238 16.4018 11.7946C16.0744 11.5655 15.6324 11.4509 15.0759 11.4509C13.9955 11.4509 13.2589 11.7946 12.8661 12.4821C12.506 13.1696 12.3259 14.0863 12.3259 15.2321V22.5H7.75893V7.81696H12.1786V9.83036H12.2277C12.5551 9.1756 13.0952 8.61905 13.8482 8.16071C14.6012 7.66964 15.5015 7.42411 16.5491 7.42411C17.6622 7.42411 18.5789 7.60417 19.2991 7.96429C20.0521 8.29167 20.6086 8.79911 20.9688 9.48661C21.3616 10.1414 21.6235 10.8616 21.7545 11.6473C21.9182 12.433 22 13.3661 22 14.4464V22.5Z" fill="white"/>
</svg>
