<svg width="126" height="125" viewBox="0 0 126 125" fill="none" xmlns="http://www.w3.org/2000/svg">
<path d="M25.4876 0.500065H25.4887H100.54C103.82 0.500064 107.068 1.14146 110.097 2.38752C113.127 3.63357 115.88 5.45981 118.197 7.76166C120.515 10.0635 122.353 12.7958 123.606 15.8024C124.859 18.8089 125.502 22.0309 125.5 25.2842V25.2846V99.7628C125.495 106.324 122.865 112.616 118.187 117.254C113.509 121.893 107.165 124.5 100.55 124.5H25.4502H25.45C22.1743 124.501 18.9304 123.862 15.9037 122.619C12.877 121.376 10.1269 119.554 7.81026 117.257C5.49362 114.96 3.6558 112.233 2.40159 109.231C1.1474 106.229 0.501309 103.012 0.500046 99.7632C0.500046 99.7631 0.500046 99.763 0.500046 99.763L0.500047 25.2846L0.500045 25.2836C0.493828 22.027 1.13574 18.8012 2.38908 15.7912C3.64243 12.7812 5.48256 10.0462 7.80405 7.74326C10.1255 5.44036 12.8827 3.61488 15.9174 2.37182C18.952 1.12876 22.2043 0.492661 25.4876 0.500065Z" fill="#FA4616" stroke="white"/>
<path d="M110.92 51.0123L109.949 50.872V23.9271C109.949 23.1507 109.639 22.4062 109.088 21.8573C108.537 21.3084 107.789 21 107.01 21H18.2332C17.4536 21 16.706 21.3084 16.1547 21.8573C15.6034 22.4062 15.2937 23.1507 15.2937 23.9271V51.0123L15.0763 51.0444C13.3779 51.3165 11.8327 52.1833 10.7188 53.4887C9.60492 54.7941 8.99544 56.4525 9.00003 58.1656V84.4689C9.00033 86.1806 9.61156 87.8365 10.7246 89.1409C11.8376 90.4453 13.38 91.3134 15.0763 91.5901L61.9751 98.5028C62.6532 98.6044 63.3427 98.6044 64.0207 98.5028L110.92 91.5901C112.617 91.3142 114.16 90.4465 115.274 89.142C116.388 87.8375 116.999 86.1812 117 84.4689V58.1656C117.012 56.4465 116.405 54.7799 115.29 53.4677C114.175 52.1555 112.624 51.2844 110.92 51.0123Z" fill="#FA4616"/>
<path d="M54.2804 64.5693C51.7516 64.5693 51.3047 65.0746 51.3047 66.1331V76.2254C51.3047 77.284 51.7516 77.7892 54.2804 77.7892C56.8092 77.7892 57.2521 77.284 57.2521 76.2254V66.1331C57.2682 65.0746 56.8092 64.5693 54.2804 64.5693Z" fill="#FA4616"/>
<path d="M115.286 55.4987C115.057 55.0194 114.766 54.5719 114.421 54.1675C114.193 53.8986 113.943 53.6504 113.672 53.4257C113.398 53.2009 113.106 52.9997 112.798 52.8243C112.167 52.4677 111.474 52.2311 110.756 52.1266L108.832 51.8459V23.9266C108.832 23.8041 108.82 23.6818 108.795 23.5618C108.7 23.0971 108.425 22.6883 108.03 22.423C107.73 22.2201 107.375 22.1125 107.011 22.1143H18.2351C17.872 22.1125 17.5169 22.2201 17.2163 22.423C16.8215 22.6883 16.5468 23.0971 16.4512 23.5618C16.4266 23.6818 16.4145 23.8041 16.415 23.9266V51.9542L15.2432 52.1266C14.5917 52.228 13.9616 52.4367 13.3789 52.7441L13.0447 52.9325C12.7952 53.0762 12.5569 53.2384 12.3319 53.4177C12.0594 53.6423 11.8074 53.8906 11.579 54.1595C11.2348 54.564 10.9451 55.0115 10.7172 55.4907C10.3244 56.318 10.1208 57.2219 10.1213 58.1371V84.4405C10.1094 85.8878 10.6201 87.2913 11.5602 88.3952C12.5003 89.4991 13.8073 90.2301 15.2432 90.4549L56.7826 96.5817L62.1421 97.3836C62.7106 97.4692 63.2889 97.4692 63.8574 97.3836L110.756 90.467C112.193 90.243 113.501 89.5124 114.442 88.4084C115.383 87.3044 115.894 85.9004 115.882 84.4525V58.1491C115.883 57.2339 115.679 56.3301 115.286 55.5027V55.4987ZM62.6897 93.6908L15.7949 86.7741C15.2487 86.6778 14.7549 86.3908 14.4021 85.9645C14.0493 85.5383 13.8607 85.0007 13.8701 84.4485V58.1451C13.8617 57.5935 14.0507 57.0569 14.4034 56.6315C14.7561 56.2061 15.2494 55.9197 15.7949 55.8235L62.2468 48.967C65.8708 49.392 92.5033 53.2373 110.209 55.8195C110.755 55.915 111.25 56.2018 111.602 56.6282C111.955 57.0547 112.144 57.5926 112.133 58.1451V84.4485C112.143 85.0007 111.954 85.5383 111.601 85.9645C111.249 86.3908 110.755 86.6778 110.209 86.7741L63.3098 93.6908C63.2072 93.7055 63.1035 93.7122 62.9998 93.7108C62.896 93.712 62.7924 93.7053 62.6897 93.6908Z" fill="#000033"/>
<path fill-rule="evenodd" clip-rule="evenodd" d="M65.9968 64.7698V77.6608C65.9968 82.8453 62.1634 85.3634 54.2792 85.3634C46.3949 85.3634 42.5615 82.8453 42.5615 77.6608V64.7698C42.5615 59.6174 46.3949 57.1113 54.2792 57.1113C62.1634 57.1113 65.9968 59.6174 65.9968 64.7698ZM54.2953 77.7892C56.8241 77.7892 57.267 77.2839 57.267 76.2254V66.1331C57.267 65.0745 56.8241 64.5693 54.2953 64.5693C51.7665 64.5693 51.3196 65.0745 51.3196 66.1331V76.2254C51.3196 77.2839 51.7665 77.7892 54.2953 77.7892ZM41.0635 57.6005V58.3463V84.1645V84.9103H40.3186H33.0665H32.3176V84.1645V74.9303H26.7889V84.1645V84.9103H26.04H18.7919H18.043V84.1645V58.3463V57.6005H18.7919H26.04H26.7889V58.3463V67.0914H32.3176V58.3463V57.6005H33.0665H40.3186H41.0635ZM67.3941 63.9398V66.6503C67.3941 70.4595 68.5054 72.4242 71.1107 73.2221L76.4944 74.9182L76.6273 74.9623C77.336 75.1404 78.0232 75.3945 78.6769 75.7202C78.7413 75.7683 78.7815 75.8004 78.7815 76.3256V77.3842C78.7815 77.6889 78.4111 77.8894 76.6031 77.8894H68.9524H68.2034V85.3434H68.9444H76.7038C83.8512 85.3434 87.4711 83.0458 87.4711 78.5269V75.4716C87.4711 71.6744 86.4443 69.858 83.8109 68.9799L78.3829 67.1676L78.3828 67.1675C76.0837 66.3656 76.0837 66.3656 76.0837 65.8684V65.0464C76.0837 64.7096 76.2367 64.5051 78.3749 64.5051C80.5712 64.5051 84.66 64.418 85.5015 64.4001L85.6551 64.3969H86.3839V57.1113H78.1614C73.2489 57.1113 67.3941 58.2942 67.3941 63.9398ZM88.1758 66.6503V63.9398C88.1758 58.2942 94.0346 57.1113 98.9472 57.1113H107.186V64.3969H106.453C106.45 64.3969 106.396 64.398 106.299 64.4001C105.458 64.418 101.369 64.5051 99.1727 64.5051C97.0385 64.5051 96.8815 64.7096 96.8815 65.0464V65.8684C96.8815 65.9836 96.8815 66.0722 96.9101 66.1501C97.0051 66.4087 97.4152 66.5515 99.1847 67.1676L104.613 68.9799C107.246 69.858 108.273 71.6744 108.273 75.4716V78.5269C108.273 83.0458 104.649 85.3434 97.5016 85.3434H89.7421H88.9972V77.8894H89.7381H97.3888C99.1968 77.8894 99.5673 77.6889 99.5673 77.3842V76.3256C99.5673 75.8035 99.5235 75.7687 99.4637 75.721L99.4626 75.7202C98.8083 75.396 98.1212 75.142 97.413 74.9623L97.2761 74.9182L91.8924 73.2221C89.2871 72.4242 88.1758 70.4595 88.1758 66.6503Z" fill="#000033"/>
<path fill-rule="evenodd" clip-rule="evenodd" d="M51.3487 45.431C51.3427 45.431 51.3373 45.431 51.3323 45.431C47.2975 45.431 44.5795 44.2882 44.5876 40.471V31.8623C44.5876 28.0651 47.3056 26.79 51.3323 26.79H56.873V30.7997H51.3323C50.1041 30.7997 48.9767 31.0242 48.9767 32.7684V39.3884C48.9767 41.1366 50.1243 41.2569 51.3323 41.2569C51.4732 41.2569 51.8437 41.2569 56.873 40.6154V44.7212C52.0588 45.4365 51.5082 45.4323 51.3487 45.431ZM30.776 48.6267L26.3145 49.2602V31.0243H21.5469V26.8141H35.5436V31.0243H30.776V48.6267ZM37.6698 26.8141H42.1313L42.1233 46.8905L37.6698 47.5641V26.8141ZM63.7023 38.5464L64.6204 38.5825L68.8525 44.9578L74.0308 45.6595L68.4699 36.0123L73.62 26.8141H68.8283L64.8499 33.9233L63.7023 33.9152V26.8141H59.2448V44.7213H63.7023V38.5464ZM80.1996 42.1791L87.6168 43.1655V47.5761L75.7381 45.8921V26.8141H87.7094V30.9962H80.1996V34.7132L87.2141 35.1743V39.2922L80.1996 38.8351V42.1791ZM94.43 48.5665L98.8916 49.164V31.0243H103.659V26.8141H89.6624V31.0243H94.43V48.5665Z" fill="white"/>
<path fill-rule="evenodd" clip-rule="evenodd" d="M65.2528 64.7692V77.6603C65.2528 82.8809 60.8879 84.617 54.2801 84.617C47.6723 84.617 43.3074 82.8728 43.3074 77.6603V64.7692C43.3074 59.5927 47.6764 57.8525 54.2801 57.8525C60.8839 57.8525 65.2528 59.5927 65.2528 64.7692ZM54.2841 78.5304C56.2572 78.5304 58.0048 78.3058 58.0048 76.2248V66.1325C58.0048 64.0515 56.2572 63.8269 54.2841 63.8269C52.3111 63.8269 50.5635 64.0515 50.5635 66.1325V76.2248C50.5635 78.3058 52.3111 78.5304 54.2841 78.5304ZM33.0676 58.3457H40.3196V84.1639H33.0676V74.1839H26.041V84.1639H18.793V58.3457H26.041V67.8326H33.0676V58.3457ZM68.14 63.9392V66.6497C68.14 70.6955 69.4689 71.9425 71.3292 72.5079L76.7209 74.208L76.89 74.2618C79.347 75.0441 79.5396 75.1055 79.5396 76.3251V77.3836C79.5396 78.5183 78.247 78.6346 76.6122 78.6346H68.9615V84.601H76.7209C82.9462 84.601 86.7433 82.9009 86.7433 78.5143V75.471C86.7433 71.5014 85.5353 70.3266 83.5904 69.6851L78.1625 67.8727C75.6579 67.0026 75.3438 66.8863 75.3438 65.8679V65.0459C75.3438 63.843 76.5518 63.7628 78.3839 63.7628C80.8523 63.7628 85.632 63.6505 85.632 63.6505V57.8566H78.1423C72.2392 57.8525 68.14 59.4765 68.14 63.9392ZM88.9258 66.6497V63.9392C88.9258 59.4765 93.0249 57.8525 98.924 57.8566H106.414V63.6505C106.414 63.6505 101.634 63.7628 99.1656 63.7628C97.3375 63.7628 96.1295 63.843 96.1295 65.0459V65.8679C96.1295 66.8863 96.4396 67.0026 98.9482 67.8727L104.376 69.6851C106.317 70.3266 107.525 71.5014 107.525 75.471V78.5143C107.525 82.9009 103.732 84.601 97.5026 84.601H89.7472V78.6346H97.3979C99.0287 78.6346 100.321 78.5183 100.321 77.3836V76.3251C100.321 75.1041 100.132 75.044 97.664 74.2593L97.5026 74.208L92.1149 72.5079C90.2546 71.9425 88.9258 70.6955 88.9258 66.6497Z" fill="white"/>
<path fill-rule="evenodd" clip-rule="evenodd" d="M109.942 85.4193H110.345L110.148 83.8154H109.713L109.467 84.6414C109.431 84.6895 109.431 84.7296 109.431 84.7657V84.7657V84.862C109.423 84.7981 109.41 84.735 109.391 84.6735C109.39 84.6628 109.39 84.6521 109.391 84.6414L109.145 83.8154H108.71L108.461 85.4193H108.863L108.956 84.7256L108.98 84.5492V84.3688C108.991 84.4383 109.011 84.5225 109.04 84.6214V84.6695L109.258 85.4193H109.552L109.769 84.6695V84.6214C109.807 84.5276 109.827 84.4471 109.829 84.3798C109.829 84.3992 109.827 84.419 109.825 84.4384C109.821 84.4839 109.816 84.5281 109.83 84.5652C109.85 84.6214 109.85 84.6775 109.85 84.7256L109.942 85.4193ZM107.659 84.1964V85.4233H108.098V84.1964H108.461V83.8194H107.297V84.1964H107.659Z" fill="#000033"/>
<path fill-rule="evenodd" clip-rule="evenodd" d="M98.25 95.7854C98.3802 95.9971 98.4394 96.2448 98.419 96.4925H98.4063C98.3797 96.8283 98.2809 97.1544 98.1165 97.4484C97.9522 97.7425 97.7262 97.9976 97.4541 98.1963C96.863 98.6673 96.1537 98.9669 95.4038 99.0624C95.1834 99.8622 95.1071 100.695 95.1785 101.521C95.1803 101.531 95.1791 101.54 95.1751 101.549C95.1711 101.557 95.1645 101.564 95.1562 101.569C95.1489 101.576 95.1399 101.582 95.13 101.585C95.12 101.589 95.1095 101.589 95.0991 101.588C93.0297 101.566 94.7659 97.8472 95.845 96.3433C93.9856 97.2267 94.2483 97.943 94.2945 98.0688C94.2992 98.0817 94.3017 98.0884 94.2993 98.0884C93.1186 98.0408 93.7216 96.4036 95.2895 95.6073C95.7076 95.3945 96.1599 95.257 96.6258 95.2012C96.9862 95.1489 97.3541 95.1882 97.6954 95.3154C97.9256 95.4091 98.1199 95.5737 98.25 95.7854ZM95.7371 98.1645C95.9334 98.1484 96.1267 98.1058 96.3115 98.0376V98.044C96.686 97.9018 97.0203 97.671 97.2859 97.3713C97.4617 97.1863 97.5911 96.9624 97.6636 96.7177C97.6944 96.6033 97.6847 96.4817 97.6361 96.3736C97.5876 96.2654 97.5031 96.1774 97.397 96.1244C97.0687 96.007 96.7097 96.007 96.3814 96.1244C96.4826 96.1514 96.5822 96.1843 96.6797 96.2228C96.6965 96.2292 96.7115 96.2393 96.7238 96.2524C96.736 96.2655 96.7451 96.2812 96.7503 96.2984C96.7555 96.3156 96.7567 96.3337 96.7538 96.3513C96.7509 96.369 96.7441 96.3858 96.7337 96.4005C96.3366 96.9494 96.0023 97.5411 95.7371 98.1645ZM99.3105 96.6751C99.2355 96.7494 99.1368 96.7948 99.0316 96.8034H99.0157C98.9678 96.8045 98.9202 96.7947 98.8766 96.7747C98.833 96.7548 98.7945 96.7253 98.7639 96.6883C98.7334 96.6514 98.7116 96.608 98.7003 96.5614C98.6889 96.5149 98.6882 96.4663 98.6983 96.4195C98.7096 96.3154 98.7565 96.2184 98.8311 96.145C98.9057 96.0716 99.0035 96.0262 99.1077 96.0166C99.1566 96.0131 99.2057 96.021 99.251 96.0397C99.2964 96.0583 99.3368 96.0872 99.369 96.1241C99.4013 96.161 99.4246 96.2049 99.4371 96.2523C99.4496 96.2997 99.4509 96.3493 99.441 96.3973C99.4316 96.5024 99.3854 96.6008 99.3105 96.6751ZM100.415 98.5706C100.333 98.6055 100.193 98.5897 100.171 98.4882L100.152 98.4977C100.112 98.3135 100.298 97.8967 100.471 97.5069L100.471 97.5068L100.471 97.5068C100.492 97.4601 100.513 97.4137 100.533 97.3681C100.622 97.1714 100.755 96.8573 100.85 96.5654C101.145 96.4811 101.454 96.4563 101.758 96.4925C101.84 96.3973 101.923 96.3053 102.015 96.2164L101.99 96.1752C101.902 96.0776 101.791 96.0041 101.667 95.9618C101.543 95.9196 101.411 95.91 101.282 95.9341C101.176 95.9392 101.07 95.9498 100.964 95.9658C100.958 95.8611 100.923 95.7602 100.863 95.6739C100.825 95.6303 100.779 95.5948 100.727 95.5697C100.675 95.5446 100.619 95.5304 100.561 95.5279C100.511 95.5226 100.461 95.5274 100.413 95.5422C100.365 95.5569 100.32 95.5812 100.282 95.6136C100.254 95.6363 100.228 95.6606 100.203 95.6866C100.261 95.7336 100.306 95.7948 100.334 95.8642C100.362 95.9337 100.371 96.009 100.361 96.0832C100.33 96.0918 100.299 96.1008 100.269 96.1096C100.222 96.1236 100.178 96.1369 100.133 96.1466C100.015 96.177 99.8895 96.1599 99.7838 96.099L99.7076 96.0515C99.6914 96.0388 99.6728 96.0297 99.6529 96.0246C99.633 96.0195 99.6123 96.0186 99.5921 96.0219C99.5718 96.0251 99.5525 96.0326 99.5352 96.0437C99.5179 96.0547 99.5032 96.0693 99.4918 96.0864C99.5338 96.1479 99.5604 96.2187 99.5693 96.2927C99.5781 96.3667 99.5689 96.4418 99.5426 96.5115C99.6106 96.604 99.7043 96.6744 99.8122 96.7139C99.92 96.7534 100.037 96.7603 100.149 96.7336C99.9371 97.3042 99.6579 97.8474 99.3172 98.3517C99.168 98.5421 99.003 98.7071 98.8665 98.7071C98.3646 98.7227 98.9496 97.6977 99.1421 97.3605L99.1522 97.3428C99.2125 97.2064 99.1839 97.1175 99.0474 97.0604C98.932 97.0107 98.8081 96.9837 98.6824 96.9811C98.6517 96.9802 98.6214 96.9894 98.5963 97.0071C98.5711 97.0248 98.5524 97.0502 98.5428 97.0794C98.3177 97.5857 98.1257 98.1061 97.9683 98.6373C97.8971 98.8373 97.9028 99.0567 97.9842 99.2528C98.0115 99.3019 98.0487 99.3448 98.0935 99.3787C98.1383 99.4125 98.1897 99.4367 98.2444 99.4495C98.4276 99.4799 98.6155 99.4378 98.7681 99.3321C99.0287 99.1439 99.2452 98.9014 99.4029 98.6214C99.3609 98.786 99.3687 98.9593 99.4251 99.1195C99.4518 99.185 99.497 99.2413 99.5553 99.2813C99.6463 99.3271 99.7459 99.3529 99.8477 99.3573C99.9495 99.3617 100.051 99.3445 100.146 99.3067C100.35 99.225 100.529 99.0916 100.666 98.9196C100.837 98.709 100.977 98.475 101.082 98.2248C101.147 98.0786 101.199 97.9267 101.237 97.7711H101.209C101.168 97.8346 101.123 97.898 101.076 97.9583C100.951 98.1114 100.817 98.2556 100.672 98.3898C100.597 98.4631 100.51 98.5241 100.415 98.5706ZM109.151 96.9558C109.17 96.867 109.187 96.7832 109.207 96.7082L109.22 96.6765C109.254 96.4773 109.326 96.2867 109.432 96.1149C109.494 96.0651 109.572 96.0402 109.651 96.0451C109.829 96.0451 110.153 96.099 110.007 96.3624C109.868 96.6697 109.756 96.9881 109.67 97.3142L109.651 97.376C109.634 97.431 109.617 97.4884 109.601 97.5458C109.556 97.7013 109.509 97.8695 109.461 98.044L109.44 98.1226C109.386 98.3242 109.33 98.534 109.274 98.7388C109.177 99.1096 109 99.455 108.756 99.7509C108.513 99.9833 108.202 100.132 107.868 100.176C106.716 100.293 106.636 99.1005 107.757 98.9672H107.791C107.794 98.9685 107.796 98.9706 107.798 98.9731C107.8 98.9756 107.8 98.9785 107.8 98.9815C107.8 98.9845 107.8 98.9874 107.798 98.9899C107.796 98.9925 107.794 98.9945 107.791 98.9958L107.772 99.0148C107.468 99.3226 107.623 99.5828 107.88 99.551C108.01 99.5388 108.134 99.4928 108.241 99.4176C108.347 99.3425 108.432 99.2408 108.487 99.1227C108.577 98.9294 108.655 98.7301 108.718 98.5262C108.744 98.4532 108.766 98.3803 108.788 98.2978C108.725 98.3848 108.645 98.4579 108.553 98.5125C108.461 98.5671 108.358 98.602 108.252 98.6151C107.918 98.65 107.744 98.4659 107.744 98.1296C107.621 98.3389 107.446 98.5128 107.236 98.6341C107.132 98.6849 107.015 98.7037 106.9 98.688C106.665 98.6531 106.582 98.4469 106.582 98.1709C106.49 98.3644 106.362 98.5387 106.205 98.6849C105.941 98.8879 105.506 98.9736 105.379 98.5706C105.313 98.2781 105.334 97.9726 105.44 97.6918C105.144 98.0587 104.78 98.3638 104.366 98.5897C103.953 98.8156 103.499 98.9579 103.031 99.0085C102.823 99.7618 102.751 100.546 102.818 101.325C102.824 101.344 102.796 101.372 102.796 101.372C102.789 101.379 102.78 101.383 102.771 101.386C102.761 101.389 102.751 101.39 102.742 101.388C100.79 101.369 102.428 97.8599 103.446 96.4385C101.699 97.2734 101.939 97.9474 101.982 98.0688C101.987 98.0817 101.989 98.0884 101.986 98.0884C100.891 98.044 101.46 96.4988 102.939 95.7469C103.337 95.547 103.766 95.4172 104.208 95.363C104.548 95.3149 104.895 95.3519 105.217 95.4708C105.83 95.7247 106.014 96.337 105.83 96.9716C105.916 96.8413 106.027 96.7299 106.158 96.6442C106.288 96.5586 106.435 96.5005 106.589 96.4734C106.665 96.4582 106.745 96.4627 106.819 96.4866C106.893 96.5105 106.96 96.5529 107.014 96.6099V96.5559C107.03 96.4861 107.055 96.4163 107.128 96.4163H107.16C107.251 96.4193 107.342 96.4332 107.43 96.4576C107.462 96.4665 107.491 96.4823 107.517 96.5038C107.542 96.5253 107.563 96.552 107.577 96.5821C107.591 96.6122 107.599 96.645 107.599 96.6782C107.599 96.7115 107.592 96.7445 107.579 96.7748L107.561 96.8154C107.404 97.1692 106.997 98.0897 107.439 98.044C107.551 98.0127 107.648 97.9417 107.712 97.8441C107.724 97.8295 107.737 97.8176 107.751 97.8057C107.781 97.7786 107.812 97.7513 107.823 97.6918C107.839 97.6061 107.858 97.5141 107.884 97.4157C107.934 97.2063 108.004 96.9684 108.093 96.705C108.125 96.5911 108.164 96.4788 108.207 96.3687C108.213 96.3472 108.226 96.3278 108.242 96.3132C108.259 96.2985 108.28 96.2891 108.302 96.2862C108.395 96.2784 108.488 96.2892 108.575 96.318C108.614 96.3258 108.651 96.3428 108.682 96.3677C108.713 96.3925 108.737 96.4244 108.753 96.4607C108.769 96.5049 108.769 96.5531 108.753 96.5972C108.735 96.6571 108.711 96.7155 108.683 96.7717L108.678 96.784C108.508 97.1846 108.173 97.9737 108.582 97.9297C108.726 97.8851 108.846 97.786 108.918 97.6537C109 97.5147 109.06 97.3638 109.096 97.2064C109.117 97.1205 109.135 97.0361 109.151 96.9558ZM103.339 98.1518C103.523 98.1378 103.705 98.0983 103.878 98.0344L103.881 98.0376C104.235 97.9035 104.551 97.6858 104.802 97.4031C104.968 97.2302 105.091 97.0203 105.16 96.7907C105.189 96.6826 105.18 96.5678 105.134 96.4655C105.089 96.3633 105.009 96.2799 104.91 96.2291C104.602 96.1203 104.265 96.1203 103.957 96.2291C104.053 96.255 104.147 96.2857 104.24 96.3211C104.256 96.3266 104.271 96.336 104.283 96.3483C104.295 96.3607 104.304 96.3757 104.309 96.3921C104.314 96.4086 104.315 96.426 104.311 96.4429C104.308 96.4598 104.301 96.4757 104.291 96.4893C103.912 97.0063 103.593 97.5639 103.339 98.1518ZM105.96 97.7901C105.944 97.99 105.992 98.0884 106.062 98.1074H106.046C106.201 98.1487 106.424 97.9583 106.538 97.695C106.617 97.518 106.679 97.3343 106.725 97.1461C106.757 97.0287 106.722 96.9081 106.595 96.8859C106.363 96.8383 105.995 97.3682 105.96 97.7901ZM110.188 96.0229V96.2037L110.254 96.1879V96.007H110.305V95.9499H110.134V96.0229H110.188ZM110.55 96.2037H110.61L110.619 95.9785H110.553L110.518 96.1022V96.0895L110.483 95.9658H110.419L110.381 96.2037H110.442V96.1022C110.44 96.0928 110.44 96.0831 110.442 96.0737V96.0483C110.442 96.061 110.442 96.0737 110.442 96.0864L110.473 96.1974H110.515L110.548 96.0901C110.548 96.0941 110.549 96.0982 110.55 96.1022V96.2037ZM110.548 96.0901C110.548 96.0856 110.549 96.0812 110.55 96.0768V96.0483C110.552 96.0609 110.552 96.0738 110.55 96.0864L110.548 96.0901ZM84.4776 98.0891C84.4833 97.9883 84.4522 97.8889 84.39 97.8091C84.3596 97.7744 84.3216 97.7471 84.279 97.7292C84.2363 97.7112 84.1902 97.7032 84.144 97.7056C84.0674 97.7029 83.9927 97.7295 83.9353 97.78C83.9308 97.7882 83.9286 97.789 83.9226 97.7882C83.9166 97.7875 83.9166 97.7845 83.9166 97.78V97.7517C83.9166 97.748 83.9158 97.7442 83.9142 97.7408C83.9127 97.7373 83.9104 97.7342 83.9076 97.7316C83.9051 97.7288 83.902 97.7266 83.8985 97.7251C83.895 97.7235 83.8912 97.7227 83.8874 97.7227H83.6691C83.6652 97.7227 83.6615 97.7235 83.658 97.7251C83.6545 97.7266 83.6514 97.7288 83.6489 97.7316C83.6462 97.7343 83.6441 97.7374 83.6427 97.7408C83.6413 97.7443 83.6406 97.748 83.6406 97.7517V99.3515C83.6406 99.3552 83.6413 99.3589 83.6427 99.3624C83.6441 99.3658 83.6462 99.369 83.6489 99.3716C83.6543 99.3768 83.6615 99.3797 83.6691 99.3798H83.8852C83.8927 99.3797 83.8999 99.3768 83.9054 99.3716C83.9081 99.369 83.9102 99.3658 83.9116 99.3624C83.913 99.3589 83.9137 99.3552 83.9136 99.3515V98.8748C83.9134 98.873 83.9137 98.8711 83.9145 98.8694C83.9153 98.8677 83.9166 98.8662 83.9181 98.8652C83.9195 98.8641 83.9212 98.8636 83.923 98.8636C83.9247 98.8636 83.9264 98.8641 83.9278 98.8652C83.9561 98.8946 83.991 98.917 84.0296 98.9307C84.0653 98.9437 84.103 98.9505 84.141 98.9508C84.1876 98.9537 84.2342 98.9461 84.2773 98.9284C84.3205 98.9107 84.359 98.8835 84.39 98.8488C84.4527 98.7681 84.4838 98.6675 84.4776 98.5658V98.0891ZM84.1176 97.9514C84.1361 97.9595 84.1526 97.9717 84.1657 97.9871H84.1649C84.1927 98.022 84.2073 98.0655 84.2061 98.11V98.5471C84.2078 98.5911 84.1935 98.6343 84.1657 98.6685C84.1524 98.6836 84.1359 98.6956 84.1174 98.7036C84.0989 98.7116 84.0789 98.7154 84.0587 98.7147C84.0391 98.7153 84.0197 98.7115 84.0018 98.7035C83.9839 98.6955 83.9681 98.6835 83.9555 98.6685C83.9282 98.6341 83.9144 98.591 83.9166 98.5471V98.11C83.9147 98.0657 83.9284 98.0222 83.9555 97.9871C83.9679 97.9719 83.9837 97.9597 84.0016 97.9516C84.0195 97.9435 84.039 97.9396 84.0587 97.9402C84.0789 97.9394 84.0991 97.9433 84.1176 97.9514ZM84.77 98.8468C84.7322 98.8106 84.7027 98.7669 84.6833 98.7185C84.664 98.67 84.6553 98.618 84.6578 98.566V98.0916C84.6555 98.0395 84.6645 97.9876 84.6841 97.9393C84.7037 97.8909 84.7335 97.8474 84.7715 97.8115C84.8601 97.7435 84.9689 97.7066 85.0808 97.7066C85.1927 97.7066 85.3014 97.7435 85.39 97.8115C85.4281 97.8473 85.458 97.8908 85.4776 97.9392C85.4972 97.9875 85.5061 98.0395 85.5037 98.0916V98.566C85.5062 98.618 85.4975 98.67 85.4782 98.7185C85.4588 98.7669 85.4293 98.8106 85.3915 98.8468C85.305 98.9203 85.1932 98.9577 85.0796 98.951C84.9668 98.9572 84.8559 98.9198 84.77 98.8468ZM85.1881 98.6665C85.217 98.6325 85.2319 98.5889 85.23 98.5444V98.1102C85.2314 98.0662 85.2165 98.0232 85.1881 97.9895C85.1741 97.9752 85.1575 97.9639 85.139 97.9561C85.1206 97.9483 85.1008 97.9443 85.0808 97.9443C85.0607 97.9443 85.0409 97.9483 85.0225 97.9561C85.0041 97.9639 84.9874 97.9752 84.9734 97.9895C84.9456 98.0237 84.9315 98.067 84.9338 98.1109V98.5451C84.9315 98.5893 84.9456 98.6328 84.9734 98.6673C84.9867 98.6823 85.0033 98.6941 85.0218 98.702C85.0403 98.7099 85.0603 98.7135 85.0804 98.7127C85.1006 98.7133 85.1208 98.7095 85.1394 98.7015C85.158 98.6935 85.1746 98.6816 85.1881 98.6665ZM85.6009 97.7519L85.8552 98.9055C85.855 98.9095 85.8556 98.9135 85.8571 98.9173C85.8586 98.921 85.8609 98.9244 85.8638 98.9272C85.8667 98.9299 85.8702 98.932 85.874 98.9333C85.8778 98.9346 85.8819 98.935 85.8859 98.9346H86.0923C86.111 98.9346 86.123 98.9264 86.123 98.9085L86.2464 98.2196C86.2479 98.2122 86.2501 98.2122 86.2531 98.2122C86.2561 98.2122 86.2606 98.2144 86.2606 98.2196L86.3863 98.9085C86.3878 98.9264 86.3975 98.9346 86.4169 98.9346H86.6301C86.6338 98.935 86.6376 98.9346 86.6413 98.9335C86.6449 98.9324 86.6482 98.9306 86.6511 98.9281C86.654 98.9257 86.6563 98.9227 86.658 98.9193C86.6596 98.9159 86.6606 98.9123 86.6608 98.9085L86.9143 97.7616C86.9195 97.7407 86.9113 97.731 86.8911 97.731L86.6847 97.7258C86.6809 97.7253 86.6771 97.7256 86.6734 97.7266C86.6698 97.7277 86.6664 97.7295 86.6635 97.732C86.6606 97.7344 86.6582 97.7375 86.6566 97.7409C86.655 97.7444 86.6541 97.7481 86.654 97.7519L86.5321 98.4885L86.5317 98.4905L86.5317 98.4905C86.5312 98.4931 86.531 98.4945 86.5301 98.4952C86.5293 98.4959 86.5278 98.4959 86.5246 98.4959H86.5246C86.5179 98.4959 86.5179 98.4937 86.5179 98.4885L86.3848 97.7519C86.3848 97.7477 86.3839 97.7436 86.382 97.7398C86.3802 97.7361 86.3775 97.7328 86.3742 97.7302C86.3708 97.7277 86.3669 97.726 86.3628 97.7252C86.3587 97.7245 86.3544 97.7247 86.3504 97.7258H86.1656C86.1618 97.7252 86.1579 97.7253 86.1542 97.7264C86.1505 97.7274 86.1471 97.7292 86.1441 97.7317C86.1412 97.7342 86.1389 97.7373 86.1373 97.7408C86.1357 97.7443 86.1349 97.7481 86.135 97.7519L86.0041 98.481L86.0035 98.4851C86.0031 98.4885 86.0031 98.4885 85.9973 98.4885C85.9899 98.4885 85.9899 98.4855 85.9899 98.481L85.8665 97.7467C85.8665 97.7428 85.8657 97.739 85.8641 97.7356C85.8625 97.7321 85.8602 97.729 85.8573 97.7265C85.8544 97.724 85.8509 97.7222 85.8472 97.7211C85.8435 97.7201 85.8396 97.72 85.8358 97.7206H85.6271C85.6099 97.7206 85.6009 97.7281 85.6009 97.7422V97.7519ZM87.85 98.4221C87.8473 98.4248 87.8442 98.4269 87.8407 98.4283C87.8372 98.4297 87.8335 98.4304 87.8298 98.4303H87.3062C87.2987 98.4303 87.295 98.434 87.295 98.4422V98.5487C87.2933 98.5923 87.3076 98.6349 87.3354 98.6686C87.3479 98.6839 87.3638 98.6962 87.3818 98.7045C87.3998 98.7127 87.4195 98.7168 87.4393 98.7163C87.4737 98.7168 87.507 98.7046 87.5328 98.682C87.5591 98.6589 87.577 98.6277 87.5837 98.5934C87.5853 98.5864 87.5893 98.5801 87.595 98.5758C87.6008 98.5714 87.6079 98.5692 87.6151 98.5696L87.826 98.5793C87.8335 98.5794 87.8408 98.5823 87.8462 98.5875C87.849 98.5904 87.851 98.594 87.852 98.5979C87.8531 98.6018 87.8531 98.6059 87.8522 98.6098C87.8472 98.7071 87.8036 98.7984 87.731 98.8638C87.6423 98.9238 87.5369 98.9548 87.4296 98.9522C87.3223 98.9497 87.2185 98.9138 87.1327 98.8496C87.0947 98.8141 87.0649 98.7708 87.0453 98.7227C87.0257 98.6746 87.0167 98.6229 87.019 98.5711V98.0922C87.0164 98.04 87.0253 97.9878 87.0449 97.9394C87.0645 97.8909 87.0945 97.8472 87.1327 97.8114C87.2204 97.7433 87.3285 97.7064 87.4397 97.7064C87.5509 97.7064 87.659 97.7433 87.7467 97.8114C87.7842 97.8471 87.8136 97.8903 87.833 97.9382C87.8523 97.9862 87.8612 98.0376 87.8589 98.0892V98.4005C87.859 98.4045 87.8583 98.4085 87.8567 98.4123C87.8552 98.416 87.8529 98.4193 87.85 98.4221ZM87.3346 97.9909C87.307 98.025 87.2927 98.0678 87.2942 98.1115V98.2181C87.294 98.2196 87.2941 98.2212 87.2946 98.2227C87.2951 98.2242 87.2959 98.2256 87.297 98.2267C87.298 98.2279 87.2994 98.2287 87.3008 98.2293C87.3023 98.2299 87.3039 98.2301 87.3055 98.23H87.574C87.5756 98.2301 87.5772 98.2298 87.5787 98.2293C87.5802 98.2287 87.5815 98.2279 87.5827 98.2267C87.5838 98.2256 87.5847 98.2242 87.5853 98.2227C87.5858 98.2212 87.586 98.2196 87.5859 98.2181V98.1115C87.588 98.0675 87.5736 98.0242 87.5455 97.9902C87.5323 97.9751 87.5158 97.9631 87.4973 97.9551C87.4788 97.9471 87.4587 97.9433 87.4386 97.944C87.4189 97.9432 87.3994 97.9469 87.3813 97.9547C87.3633 97.9626 87.3474 97.9745 87.3346 97.9894V97.9909ZM88.6559 97.7503C88.6533 97.7439 88.6487 97.7385 88.6428 97.7348C88.6128 97.7168 88.5782 97.708 88.5433 97.7095C88.4966 97.7091 88.4511 97.7238 88.4135 97.7513C88.3758 97.7788 88.3482 97.8177 88.3346 97.8622L88.3345 97.8628C88.3331 97.8712 88.333 97.8719 88.3279 97.8711C88.3227 97.8704 88.3227 97.8667 88.3227 97.86V97.752C88.3229 97.7482 88.3223 97.7444 88.3209 97.741C88.3195 97.7375 88.3173 97.7344 88.3144 97.7319C88.312 97.7289 88.3089 97.7266 88.3054 97.7251C88.3019 97.7235 88.2981 97.7228 88.2942 97.7229H88.0766C88.0728 97.7228 88.069 97.7235 88.0655 97.7251C88.062 97.7266 88.0589 97.7289 88.0564 97.7319C88.0536 97.7344 88.0514 97.7375 88.0499 97.741C88.0485 97.7444 88.0479 97.7482 88.0482 97.752V98.9041C88.0479 98.9079 88.0485 98.9116 88.0499 98.9151C88.0514 98.9186 88.0536 98.9217 88.0564 98.9242C88.059 98.9269 88.0622 98.929 88.0656 98.9304C88.0691 98.9318 88.0728 98.9325 88.0766 98.9324H88.2942C88.298 98.9325 88.3017 98.9318 88.3052 98.9304C88.3086 98.929 88.3118 98.9269 88.3144 98.9242C88.3173 98.9217 88.3195 98.9186 88.3209 98.9151C88.3223 98.9116 88.3229 98.9079 88.3227 98.9041V98.2338C88.3213 98.1792 88.3359 98.1254 88.3645 98.0789C88.3756 98.0592 88.3911 98.0422 88.4098 98.0293C88.4284 98.0164 88.4498 98.0079 88.4722 98.0044C88.4892 97.9991 88.5068 97.9966 88.5246 97.997C88.5454 97.9972 88.5661 98.0004 88.5859 98.0067C88.6069 98.0141 88.6196 98.0089 88.6196 97.9895L88.657 97.7706C88.6588 97.7639 88.6584 97.7568 88.6559 97.7503ZM89.5874 98.4222C89.5848 98.4248 89.5816 98.4269 89.5781 98.4284C89.5747 98.4298 89.5709 98.4305 89.5672 98.4304H89.0436C89.042 98.4301 89.0403 98.4303 89.0388 98.4308C89.0372 98.4313 89.0358 98.4322 89.0346 98.4333C89.0335 98.4345 89.0326 98.4359 89.0321 98.4375C89.0316 98.439 89.0314 98.4407 89.0317 98.4423V98.5488C89.0299 98.5923 89.0443 98.635 89.0721 98.6687C89.0846 98.684 89.1005 98.6962 89.1185 98.7045C89.1365 98.7127 89.1562 98.7168 89.176 98.7164C89.2106 98.7169 89.2442 98.7047 89.2703 98.6821C89.296 98.6585 89.3138 98.6276 89.3211 98.5935C89.3225 98.5865 89.3264 98.5803 89.332 98.5759C89.3377 98.5716 89.3447 98.5693 89.3518 98.5697L89.5627 98.5793C89.5665 98.5793 89.5702 98.58 89.5736 98.5814C89.5771 98.5828 89.5803 98.5849 89.5829 98.5875C89.5857 98.5905 89.5877 98.5941 89.5887 98.598C89.5897 98.6019 89.5898 98.6059 89.5889 98.6099C89.5839 98.7072 89.5403 98.7985 89.4677 98.8638C89.379 98.9239 89.2736 98.9548 89.1663 98.9523C89.059 98.9498 88.9552 98.9139 88.8694 98.8497C88.8314 98.8139 88.8016 98.7703 88.7821 98.722C88.7626 98.6737 88.7538 98.6217 88.7564 98.5697V98.0908C88.7542 98.0391 88.7631 97.9876 88.7826 97.9397C88.8021 97.8917 88.8317 97.8485 88.8694 97.813C88.9571 97.7449 89.0652 97.708 89.1764 97.708C89.2876 97.708 89.3957 97.7449 89.4834 97.813C89.5209 97.8487 89.5503 97.8919 89.5697 97.9398C89.589 97.9877 89.5979 98.0392 89.5956 98.0908V98.4021C89.5958 98.4058 89.5951 98.4096 89.5937 98.413C89.5923 98.4165 89.5901 98.4196 89.5874 98.4222ZM89.0721 97.991C89.0444 98.025 89.0301 98.0679 89.0317 98.1116V98.2181C89.0314 98.2198 89.0316 98.2214 89.0321 98.223C89.0326 98.2245 89.0335 98.226 89.0346 98.2271C89.0358 98.2283 89.0372 98.2291 89.0388 98.2297C89.0403 98.2302 89.042 98.2303 89.0436 98.23H89.3114C89.313 98.2302 89.3146 98.2299 89.3161 98.2294C89.3176 98.2288 89.319 98.2279 89.3201 98.2268C89.3212 98.2257 89.3221 98.2243 89.3227 98.2228C89.3232 98.2213 89.3235 98.2197 89.3234 98.2181V98.1116C89.3255 98.0676 89.3111 98.0243 89.283 97.9902C89.2697 97.9751 89.2532 97.9632 89.2347 97.9552C89.2162 97.9472 89.1962 97.9434 89.176 97.9441C89.1564 97.9433 89.1368 97.947 89.1188 97.9549C89.1008 97.9628 89.0848 97.9746 89.0721 97.9895V97.991ZM90.3461 97.281C90.3426 97.2824 90.3395 97.2845 90.3368 97.2872C90.3314 97.2917 90.3279 97.2981 90.3271 97.3051V97.7795C90.3274 97.7813 90.327 97.7833 90.3261 97.7849C90.3251 97.7865 90.3236 97.7878 90.3219 97.7884C90.3206 97.7894 90.319 97.7899 90.3174 97.7899C90.3158 97.7899 90.3142 97.7894 90.3129 97.7884C90.2842 97.7596 90.2495 97.7375 90.2112 97.7236C90.1752 97.7106 90.1373 97.7038 90.099 97.7035C90.0531 97.7014 90.0074 97.7094 89.965 97.7269C89.9226 97.7444 89.8846 97.771 89.8537 97.8048C89.7907 97.8847 89.7593 97.9849 89.7654 98.0863V98.5652C89.7602 98.6655 89.7913 98.7643 89.8529 98.8437C89.8833 98.8786 89.9212 98.9062 89.9638 98.9242C90.0065 98.9423 90.0527 98.9504 90.099 98.948C90.1384 98.9492 90.1776 98.9425 90.2144 98.9283C90.2511 98.9141 90.2846 98.8927 90.3129 98.8653H90.3219C90.3236 98.8662 90.3251 98.8676 90.326 98.8694C90.3269 98.8711 90.3273 98.8731 90.3271 98.875V98.9033C90.3271 98.9108 90.3301 98.918 90.3354 98.9233C90.3408 98.9286 90.348 98.9316 90.3555 98.9316H90.5732C90.5769 98.9319 90.5807 98.9313 90.5842 98.9299C90.5877 98.9285 90.5909 98.9263 90.5934 98.9234C90.5963 98.921 90.5986 98.9179 90.6002 98.9144C90.6017 98.9109 90.6025 98.9071 90.6023 98.9033V97.3073C90.6023 97.3035 90.6015 97.2998 90.6 97.2963C90.5984 97.2929 90.5962 97.2898 90.5934 97.2872C90.5907 97.2845 90.5876 97.2824 90.5841 97.281C90.5806 97.2796 90.5769 97.2789 90.5732 97.279H90.357C90.3533 97.2789 90.3496 97.2796 90.3461 97.281ZM90.3286 98.5801C90.3241 98.617 90.3072 98.6514 90.2807 98.6777C90.2684 98.6899 90.2536 98.6995 90.2374 98.7059C90.2212 98.7123 90.2039 98.7153 90.1865 98.7149C90.1663 98.7157 90.1463 98.7119 90.1277 98.7039C90.1092 98.696 90.0928 98.6839 90.0795 98.6687C90.0514 98.6346 90.037 98.5914 90.0392 98.5473V98.1102C90.037 98.0661 90.0514 98.0228 90.0795 97.9888C90.0928 97.9736 90.1092 97.9615 90.1277 97.9535C90.1463 97.9456 90.1663 97.9418 90.1865 97.9426C90.2039 97.942 90.2212 97.945 90.2374 97.9512C90.2536 97.9575 90.2683 97.967 90.2807 97.9791C90.3071 98.0057 90.3239 98.0403 90.3286 98.0774V98.5801ZM92.0436 97.8077C92.1069 97.8875 92.1385 97.9877 92.1326 98.0892V98.5711C92.1378 98.6714 92.1068 98.7702 92.0451 98.8496C92.0146 98.8845 91.9765 98.912 91.9337 98.9301C91.891 98.9481 91.8447 98.9563 91.7983 98.9539C91.759 98.9551 91.7199 98.9483 91.6833 98.9341C91.6467 98.9199 91.6133 98.8985 91.5851 98.8712C91.5814 98.8675 91.5784 98.8668 91.5754 98.8712C91.5739 98.8723 91.5726 98.8738 91.5718 98.8755C91.571 98.8772 91.5707 98.8791 91.5709 98.8809V98.9092C91.571 98.913 91.5703 98.9167 91.5689 98.9201C91.5675 98.9236 91.5654 98.9267 91.5627 98.9293C91.5601 98.932 91.5569 98.9341 91.5535 98.9356C91.55 98.937 91.5463 98.9376 91.5425 98.9375H91.3211C91.3173 98.9378 91.3136 98.9372 91.3101 98.9358C91.3066 98.9343 91.3034 98.9321 91.3009 98.9293C91.2983 98.9267 91.2961 98.9236 91.2947 98.9201C91.2933 98.9167 91.2926 98.913 91.2927 98.9092V97.305C91.2928 97.2975 91.2957 97.2903 91.3009 97.2849C91.3036 97.2822 91.3067 97.2801 91.3102 97.2787C91.3136 97.2773 91.3174 97.2766 91.3211 97.2767H91.5455C91.553 97.2767 91.5603 97.2797 91.5656 97.285C91.5709 97.2903 91.5739 97.2975 91.5739 97.305V97.7824C91.5739 97.7869 91.5739 97.7898 91.5791 97.7906C91.5844 97.7913 91.5881 97.7906 91.5926 97.7824C91.6218 97.7559 91.6562 97.7356 91.6936 97.7228C91.7283 97.711 91.7646 97.7047 91.8013 97.7042C91.8468 97.7027 91.8922 97.7112 91.934 97.7291C91.9759 97.7469 92.0133 97.7738 92.0436 97.8077ZM91.8192 97.9887C91.8059 97.9736 91.7894 97.9617 91.7709 97.9537C91.7525 97.9457 91.7324 97.9419 91.7123 97.9425C91.6948 97.9419 91.6774 97.9449 91.6611 97.9511C91.6447 97.9574 91.6298 97.9669 91.6173 97.979C91.5909 98.0055 91.5743 98.0402 91.5702 98.0773V98.58C91.5741 98.617 91.5908 98.6514 91.6173 98.6776C91.6298 98.6898 91.6447 98.6994 91.661 98.7058C91.6773 98.7122 91.6947 98.7153 91.7123 98.7148C91.7324 98.7155 91.7525 98.7116 91.7709 98.7037C91.7894 98.6957 91.8059 98.6837 91.8192 98.6687C91.8468 98.6343 91.8608 98.5912 91.8589 98.5473V98.1101C91.861 98.0663 91.8472 98.0232 91.82 97.9887H91.8192ZM92.2889 99.3702C92.2887 99.3772 92.2902 99.3841 92.2934 99.3903C92.2971 99.3985 92.3031 99.4045 92.3031 99.4045H92.3151C92.4025 99.4082 92.49 99.3961 92.5731 99.3687C92.632 99.3468 92.6814 99.3052 92.713 99.2511C92.7558 99.1723 92.7877 99.0881 92.808 99.0008L93.1258 97.7615C93.1303 97.7407 93.1221 97.731 93.0996 97.731L92.8648 97.7258C92.861 97.7253 92.8572 97.7255 92.8535 97.7266C92.8499 97.7277 92.8465 97.7295 92.8436 97.7319C92.8407 97.7344 92.8383 97.7375 92.8367 97.7409C92.8351 97.7443 92.8342 97.7481 92.8341 97.7518L92.6995 98.5257C92.698 98.5331 92.695 98.5331 92.692 98.5331C92.689 98.5331 92.6853 98.5309 92.6853 98.5257L92.5409 97.7444C92.5394 97.7273 92.529 97.7183 92.5095 97.7183H92.2777C92.2605 97.7183 92.2515 97.7258 92.2515 97.7399V97.7496L92.5507 98.9204V98.9345C92.5465 98.9861 92.5331 99.0366 92.511 99.0835C92.4954 99.1147 92.4688 99.1391 92.4362 99.152C92.3964 99.1652 92.3548 99.172 92.3128 99.1721C92.3096 99.1719 92.3064 99.1726 92.3035 99.1741C92.3006 99.1755 92.2982 99.1776 92.2964 99.1803C92.2938 99.183 92.2918 99.1861 92.2905 99.1896C92.2892 99.193 92.2887 99.1967 92.2889 99.2004V99.3702Z" fill="#000033"/>
</svg>
