<svg width="24" height="24" viewBox="0 0 24 24" fill="none" xmlns="http://www.w3.org/2000/svg">
<g clip-path="url(#clip0_7985_209081)">
<path d="M21.9932 12.9695C21.6969 10.1245 21.4297 7.2753 21.1496 4.4282C21.1424 4.30166 21.1156 4.17691 21.0699 4.0582C20.9568 3.79481 20.724 3.69134 20.4235 3.76554C20.3042 3.80404 20.1891 3.85375 20.0798 3.91396C18.8947 4.4606 17.6385 4.95288 16.0688 4.76266C15.1121 4.64455 14.2707 4.18676 13.4648 3.68402C11.1679 2.25315 8.93133 1.78177 6.55792 2.0901C5.31631 2.24954 4.12767 2.67822 3.08022 3.34433C3.03712 3.17606 3.01019 3.06736 2.98325 2.9597C2.8335 2.34513 2.62342 2.06815 2.32283 2.15804C1.8725 2.29287 1.99963 2.72871 2.08043 3.10812C3.42928 9.62803 5.17351 15.5814 7.25173 20.937C7.48013 21.5254 7.72685 22.1013 7.95848 22.6772C8.07699 22.9709 8.31616 23.0953 8.68892 22.9354C9.08323 22.7724 9.09185 22.5006 8.99705 22.2309C8.97442 22.1661 8.94425 22.1045 8.9184 22.0407C8.2842 20.5426 7.67693 18.994 7.09659 17.3948C6.8154 16.6214 6.81648 16.6151 7.56524 16.0999C8.78373 15.2574 10.0345 14.576 11.5515 14.4704C12.7721 14.3836 13.9615 14.5383 15.1326 14.762C17.3013 15.1749 19.3903 14.7087 21.3672 13.8558C21.866 13.6311 22.0363 13.3771 21.9932 12.9695ZM17.5599 5.55805C17.659 6.18516 17.7516 6.7527 17.841 7.31711C17.8556 7.52413 17.8855 7.72987 17.9305 7.93272C18.0167 8.20552 17.8874 8.28913 17.5825 8.3299C16.6299 8.45186 15.6613 8.30679 14.7911 7.91182C14.6895 7.86904 14.6083 7.79066 14.5637 7.69233C14.2944 6.76838 14.0466 5.8298 13.7816 4.80133C15.0162 5.44935 16.2304 5.7535 17.5599 5.55805ZM9.29116 3.02764C9.6273 3.07049 9.96451 3.13216 10.3006 3.20532C10.354 3.21925 10.4039 3.24346 10.4474 3.2765C10.4909 3.30954 10.5271 3.35074 10.5538 3.39764C10.821 4.44283 11.0807 5.46921 11.3284 6.40152C9.97744 6.43496 8.65552 6.45482 7.25604 6.46214C6.92745 5.46189 6.57946 4.34876 6.23255 3.15933C7.23547 2.9362 8.27181 2.89158 9.29116 3.02764ZM5.42777 12.3006C5.38252 12.1793 5.30926 12.01 5.25647 11.8334C4.9171 10.6993 4.58743 9.54336 4.29763 8.36125C4.26315 8.21911 4.33749 7.95049 4.44199 7.89719C5.35451 7.42581 6.27349 7.00041 7.22264 6.55307C7.69991 8.01634 8.15779 9.31238 8.6232 10.5436C7.58248 11.1112 6.53745 11.686 5.42777 12.3006ZM10.1681 13.7921C10.0938 13.813 9.90849 13.6823 9.86863 13.5883C9.47324 12.658 9.10801 11.7069 8.73417 10.691C9.6357 10.4007 10.5922 10.3072 11.5353 10.4171C12.5329 10.5342 12.5254 10.5457 12.7872 11.4258C13.0026 12.1574 13.2461 12.8817 13.4993 13.6437C12.3293 13.5851 11.2455 13.489 10.1681 13.7921ZM12.7796 10.5405C12.7251 10.5277 12.6738 10.5043 12.629 10.4716C12.5841 10.4389 12.5467 10.3976 12.5189 10.3503C12.1612 9.16709 11.8305 7.9599 11.5094 6.73075C11.5094 6.72135 11.5213 6.70985 11.5849 6.60533C12.13 6.83318 12.7118 7.0349 13.272 7.28261C14.5648 7.84075 14.5573 7.84179 14.8945 9.03122C15.0927 9.72 15.2974 10.4025 15.5194 11.1216C14.5519 10.9429 13.662 10.7568 12.7796 10.5405ZM18.5069 13.9562C18.1955 13.9896 17.8874 14.0722 17.5749 14.0973C16.5612 14.1767 16.5558 14.1704 16.2972 13.3959C16.0634 12.6904 15.8415 11.9755 15.626 11.2742C16.5741 11.2596 17.4963 11.2334 18.4594 11.1948C18.5952 12.0017 18.7277 12.7939 18.8688 13.5809C18.9087 13.8004 18.8182 13.9217 18.5069 13.9562ZM20.4278 10.507C19.8018 10.7004 19.1845 10.9147 18.5069 11.1404C18.3399 10.159 18.1912 9.25907 18.0447 8.35394C18.8484 8.05188 19.6359 7.76027 20.4676 7.45612C20.4827 7.63275 20.4989 7.81984 20.515 8.00589C20.5775 8.71662 20.6303 9.42839 20.7057 10.1391C20.7262 10.322 20.6713 10.4276 20.4278 10.5028V10.507Z" fill="#000033"/>
</g>
<defs>
<clipPath id="clip0_7985_209081">
<rect width="20" height="21" fill="white" transform="translate(2 2)"/>
</clipPath>
</defs>
</svg>
