<svg width="27" height="23" viewBox="0 0 27 23" fill="none" xmlns="http://www.w3.org/2000/svg">
<path d="M24.2051 6C24.2402 6.14103 24.2578 6.37019 24.2578 6.6875C24.2578 8.55609 23.9062 10.4247 23.2031 12.2933C22.5 14.1266 21.498 15.8189 20.1973 17.3702C18.9316 18.8862 17.2793 20.1202 15.2402 21.0721C13.2012 22.024 10.9512 22.5 8.49023 22.5C5.39648 22.5 2.56641 21.6715 0 20.0144C0.386719 20.0497 0.826172 20.0673 1.31836 20.0673C3.88476 20.0673 6.1875 19.274 8.22656 17.6875C6.99609 17.6875 5.90625 17.3349 4.95703 16.6298C4.04297 15.8894 3.41016 14.9728 3.05859 13.8798C3.41016 13.9151 3.74414 13.9327 4.06055 13.9327C4.55273 13.9327 5.04492 13.8798 5.53711 13.774C4.69336 13.5978 3.9375 13.2452 3.26953 12.7163C2.60156 12.1875 2.07422 11.5529 1.6875 10.8125C1.30078 10.0369 1.10742 9.20833 1.10742 8.32692V8.22115C1.88086 8.67949 2.70703 8.92628 3.58594 8.96154C1.93359 7.83333 1.10742 6.28205 1.10742 4.30769C1.10742 3.32051 1.37109 2.38622 1.89844 1.50481C3.26953 3.23237 4.93945 4.60737 6.9082 5.62981C8.91211 6.65224 11.0391 7.21635 13.2891 7.32212C13.2187 6.89904 13.1836 6.47596 13.1836 6.05288C13.1836 4.53686 13.7109 3.23237 14.7656 2.13942C15.8555 1.04647 17.1562 0.5 18.668 0.5C20.2852 0.5 21.6387 1.08173 22.7285 2.24519C23.9941 1.9984 25.1719 1.55769 26.2617 0.923077C25.8398 2.22756 25.0312 3.25 23.8359 3.99038C24.8906 3.84936 25.9453 3.54968 27 3.09135C26.2266 4.21955 25.2949 5.1891 24.2051 6Z" fill="white"/>
</svg>
